<svg width="44" height="10" viewBox="0 0 44 10" fill="none" xmlns="http://www.w3.org/2000/svg">
    <path d="M5.292 0.276016C5.34 0.212016 5.492 0.152016 5.748 0.0960164C6.012 0.0320163 6.26 1.62125e-05 6.492 1.62125e-05C6.724 1.62125e-05 6.916 0.0320163 7.068 0.0960164C6.484 4.76802 6.192 7.18402 6.192 7.34402C6.192 7.50402 6.24 7.64802 6.336 7.77602C6.44 7.89602 6.588 7.95602 6.77999 7.95602C7.308 7.95602 7.78 7.23202 8.196 5.78402C8.196 5.76802 8.2 5.74802 8.208 5.72402C8.216 5.70002 8.22 5.68402 8.22 5.67602C8.572 5.90002 8.8 6.04002 8.904 6.09602C8.64 7.10402 8.312 7.87602 7.92 8.41202C7.528 8.94002 7.024 9.20402 6.408 9.20402C5.792 9.20402 5.376 8.91202 5.16 8.32802H5.124C4.876 8.64002 4.6 8.86402 4.296 9.00002C3.992 9.13602 3.612 9.20402 3.156 9.20402C2.404 9.20402 1.824 9.00802 1.416 8.61602C1.016 8.22402 0.815995 7.66402 0.815995 6.93602C0.815995 6.78402 0.827995 6.61602 0.851995 6.43202L1.188 3.62402C0.395995 3.06402 -4.76837e-06 2.40402 -4.76837e-06 1.64402C-4.76837e-06 1.14002 0.151995 0.740016 0.455995 0.444016C0.759995 0.148016 1.148 1.62125e-05 1.62 1.62125e-05C2.604 1.62125e-05 3.096 0.520016 3.096 1.56002C3.096 1.72802 3.084 1.91602 3.06 2.12402L2.448 6.81602C2.44 6.87202 2.436 6.95602 2.436 7.06802C2.436 7.38002 2.508 7.63202 2.652 7.82402C2.796 8.01602 3.016 8.11202 3.312 8.11202C4.024 8.11202 4.444 7.56002 4.572 6.45602L5.292 0.276016ZM1.176 1.10402C0.903995 1.10402 0.767995 1.27202 0.767995 1.60802C0.767995 1.93602 0.951995 2.26002 1.32 2.58002L1.356 2.26802C1.404 1.85202 1.432 1.59202 1.44 1.48802C1.44 1.23202 1.352 1.10402 1.176 1.10402Z" fill="currentColor"/>
    <path d="M11.1547 4.93202C11.1547 4.58002 10.9907 4.40402 10.6627 4.40402C10.3427 4.40402 10.0867 4.61202 9.89474 5.02802C10.7587 5.70802 11.1907 6.47202 11.1907 7.32002C11.1907 7.93602 11.0187 8.40402 10.6747 8.72402C10.3307 9.04402 9.89875 9.20402 9.37875 9.20402C8.85875 9.20402 8.47875 9.04402 8.23875 8.72402C7.99875 8.39602 7.87875 7.98402 7.87875 7.48802C7.87875 7.33602 7.88275 7.22402 7.89075 7.15202L8.31075 3.49202C8.59875 3.40402 8.89075 3.36002 9.18675 3.36002C9.67475 3.36002 9.91875 3.54002 9.91875 3.90002V3.92402C10.2387 3.54802 10.6467 3.36002 11.1427 3.36002C11.5027 3.36002 11.7827 3.44402 11.9827 3.61202C12.1827 3.77202 12.2827 3.98802 12.2827 4.26002C12.2827 4.53202 12.1787 4.75602 11.9707 4.93202C11.7707 5.10002 11.5067 5.18402 11.1787 5.18402C11.1627 5.18402 11.1467 5.18402 11.1307 5.18402C11.1467 5.09602 11.1547 5.01202 11.1547 4.93202ZM10.4107 7.26002C10.4107 6.79602 10.1707 6.33202 9.69075 5.86802C9.54675 7.02002 9.47475 7.60002 9.47475 7.60802C9.47475 7.94402 9.61075 8.11202 9.88275 8.11202C10.2347 8.11202 10.4107 7.82802 10.4107 7.26002Z" fill="currentColor"/>
    <path d="M20.6138 3.30178H19.02C18.9745 3.04042 18.8907 2.80889 18.7686 2.60718C18.6464 2.40264 18.4944 2.22934 18.3126 2.0873C18.1308 1.94525 17.9234 1.83872 17.6905 1.76769C17.4603 1.69383 17.2118 1.6569 16.9447 1.6569C16.4703 1.6569 16.0498 1.77622 15.6834 2.01485C15.3169 2.25065 15.0299 2.59724 14.8226 3.05463C14.6152 3.50917 14.5115 4.06457 14.5115 4.72082C14.5115 5.38843 14.6152 5.95093 14.8226 6.40832C15.0328 6.86286 15.3197 7.20661 15.6834 7.43957C16.0498 7.66968 16.4689 7.78474 16.9405 7.78474C17.2018 7.78474 17.4461 7.75065 17.6734 7.68247C17.9035 7.61144 18.1095 7.50775 18.2913 7.37139C18.476 7.23502 18.6308 7.06741 18.7558 6.86855C18.8836 6.66968 18.9717 6.44241 19.02 6.18673L20.6138 6.19525C20.5541 6.61002 20.4248 6.99923 20.226 7.36286C20.0299 7.7265 19.7728 8.04752 19.4547 8.32593C19.1365 8.6015 18.7643 8.81741 18.3382 8.97366C17.912 9.12707 17.439 9.20377 16.9191 9.20377C16.1521 9.20377 15.4674 9.02622 14.8652 8.6711C14.2629 8.31599 13.7885 7.80321 13.4419 7.13275C13.0953 6.4623 12.922 5.65832 12.922 4.72082C12.922 3.78048 13.0967 2.9765 13.4461 2.30889C13.7956 1.63843 14.2714 1.12565 14.8737 0.770534C15.476 0.415421 16.1578 0.237864 16.9191 0.237864C17.4049 0.237864 17.8566 0.306046 18.2743 0.442409C18.6919 0.578773 19.064 0.779057 19.3907 1.04326C19.7174 1.30463 19.9859 1.62565 20.1961 2.00633C20.4092 2.38417 20.5484 2.81599 20.6138 3.30178Z" fill="black"/>
    <path d="M24.8485 9.2123C24.2093 9.2123 23.6553 9.07167 23.1865 8.79042C22.7178 8.50917 22.3542 8.1157 22.0956 7.61002C21.84 7.10434 21.7121 6.51343 21.7121 5.8373C21.7121 5.16116 21.84 4.56883 22.0956 4.06031C22.3542 3.55178 22.7178 3.1569 23.1865 2.87565C23.6553 2.5944 24.2093 2.45377 24.8485 2.45377C25.4877 2.45377 26.0417 2.5944 26.5104 2.87565C26.9792 3.1569 27.3414 3.55178 27.5971 4.06031C27.8556 4.56883 27.9848 5.16116 27.9848 5.8373C27.9848 6.51343 27.8556 7.10434 27.5971 7.61002C27.3414 8.1157 26.9792 8.50917 26.5104 8.79042C26.0417 9.07167 25.4877 9.2123 24.8485 9.2123ZM24.857 7.9765C25.2036 7.9765 25.4934 7.88133 25.7263 7.69099C25.9593 7.49781 26.1326 7.23928 26.2462 6.91542C26.3627 6.59156 26.4209 6.23076 26.4209 5.83303C26.4209 5.43247 26.3627 5.07025 26.2462 4.74639C26.1326 4.41968 25.9593 4.15974 25.7263 3.96656C25.4934 3.77338 25.2036 3.67678 24.857 3.67678C24.5019 3.67678 24.2064 3.77338 23.9706 3.96656C23.7377 4.15974 23.563 4.41968 23.4465 4.74639C23.3329 5.07025 23.276 5.43247 23.276 5.83303C23.276 6.23076 23.3329 6.59156 23.4465 6.91542C23.563 7.23928 23.7377 7.49781 23.9706 7.69099C24.2064 7.88133 24.5019 7.9765 24.857 7.9765Z" fill="black"/>
    <path d="M30.8368 0.357182V9.08445H29.2941V0.357182H30.8368Z" fill="black"/>
    <path d="M35.2782 9.2123C34.639 9.2123 34.085 9.07167 33.6162 8.79042C33.1475 8.50917 32.7838 8.1157 32.5253 7.61002C32.2696 7.10434 32.1418 6.51343 32.1418 5.8373C32.1418 5.16116 32.2696 4.56883 32.5253 4.06031C32.7838 3.55178 33.1475 3.1569 33.6162 2.87565C34.085 2.5944 34.639 2.45377 35.2782 2.45377C35.9174 2.45377 36.4713 2.5944 36.9401 2.87565C37.4088 3.1569 37.7711 3.55178 38.0267 4.06031C38.2853 4.56883 38.4145 5.16116 38.4145 5.8373C38.4145 6.51343 38.2853 7.10434 38.0267 7.61002C37.7711 8.1157 37.4088 8.50917 36.9401 8.79042C36.4713 9.07167 35.9174 9.2123 35.2782 9.2123ZM35.2867 7.9765C35.6333 7.9765 35.9231 7.88133 36.156 7.69099C36.389 7.49781 36.5623 7.23928 36.6759 6.91542C36.7924 6.59156 36.8506 6.23076 36.8506 5.83303C36.8506 5.43247 36.7924 5.07025 36.6759 4.74639C36.5623 4.41968 36.389 4.15974 36.156 3.96656C35.9231 3.77338 35.6333 3.67678 35.2867 3.67678C34.9316 3.67678 34.6361 3.77338 34.4003 3.96656C34.1674 4.15974 33.9927 4.41968 33.8762 4.74639C33.7625 5.07025 33.7057 5.43247 33.7057 5.83303C33.7057 6.23076 33.7625 6.59156 33.8762 6.91542C33.9927 7.23928 34.1674 7.49781 34.4003 7.69099C34.6361 7.88133 34.9316 7.9765 35.2867 7.9765Z" fill="black"/>
    <path d="M39.7238 9.08445V2.539H41.2196V3.62991H41.2878C41.4071 3.25207 41.6116 2.96088 41.9014 2.75633C42.194 2.54894 42.5278 2.44525 42.9028 2.44525C42.988 2.44525 43.0832 2.44951 43.1883 2.45803C43.2963 2.46372 43.3858 2.47366 43.4568 2.48786V3.9069C43.3915 3.88417 43.2878 3.86428 43.1457 3.84724C43.0065 3.82735 42.8716 3.81741 42.7409 3.81741C42.4596 3.81741 42.2068 3.87849 41.9824 4.00065C41.7608 4.11997 41.5861 4.28616 41.4582 4.49923C41.3304 4.7123 41.2664 4.95803 41.2664 5.23644V9.08445H39.7238Z" fill="black"/>
    </svg>
    